Filename:
Cop.Out.(2010).REPACK.CAM.XviD-iMAGiNE
 
http://www.imdb.com/title/tt1385867/

DETAILS:

Video
ID                               : 0
Format                           : MPEG-4 Visual
Format profile                   : Advanced Simple@L5
Format settings, BVOP            : Yes
Format settings, QPel            : No
Format settings, GMC             : No warppoints
Format settings, Matrix          : Default (MPEG)
Codec ID                         : DX50
Codec ID/Hint                    : DivX 5
Duration                         : 1h 42mn
Bit rate                         : 1 768 Kbps
Width                            : 716 pixels
Height                           : 288 pixels
Display aspect ratio             : 2.486
Frame rate                       : 23.976 fps
Resolution                       : 24 bits
Colorimetry                      : 4:2:0
Scan type                        : Progressive
Bits/(Pixel*Frame)               : 0.358
Stream size                      : 1.27 GiB (93%)
Writing library                  : XviD 1.2.1 (UTC 2008-12-04)

Audio
ID                               : 1
Format                           : MPEG Audio
Format version                   : Version 1
Format profile                   : Layer 3
Codec ID                         : 55
Codec ID/Hint                    : MP3
Duration                         : 1h 42mn
Bit rate mode                    : Constant
Bit rate                         : 128 Kbps
Channel(s)                       : 2 channels
Sampling rate                    : 44.1 KHz
Resolution                       : 16 bits
Stream size                      : 94.1 MiB (7%)
Alignment                        : Aligned on interleaves
Interleave, duration             : 42 ms (1.00 video frame)


NOTES:

IMAGiNE bringing you another release.....
Heres another homemade for ya all......audio is our but only cam.
Audio .....well we tried to get direct but had problems with the sound so we've opted to release this now instead of
sitting on it,but all being well we should get direct for it soon but unsure on the date so ......but for now this isn't is
pretty decent cam audio and will do for most until we get line.
Video .....more from our latest toy,looks the best one yet and we're still messing so hopefully we'll get better the more
we do 